<svg width="130" height="123" viewBox="0 0 130 123" fill="none" xmlns="http://www.w3.org/2000/svg">
<path d="M68.1295 79.7224C66.0946 79.7224 64.3033 79.2638 62.7556 78.3466C61.2079 77.4295 60.0041 76.1254 59.1443 74.4344C58.3131 72.7434 57.8975 70.7658 57.8975 68.5016C57.8975 66.2373 58.3131 64.2597 59.1443 62.5687C60.0041 60.8777 61.2079 59.5736 62.7556 58.6565C64.3033 57.7393 66.0946 57.2808 68.1295 57.2808C70.1645 57.2808 71.9558 57.7393 73.5035 58.6565C75.0512 59.5736 76.2406 60.8777 77.0718 62.5687C77.9316 64.2597 78.3615 66.2373 78.3615 68.5016C78.3615 70.7658 77.9316 72.7434 77.0718 74.4344C76.2406 76.1254 75.0512 77.4295 73.5035 78.3466C71.9558 79.2638 70.1645 79.7224 68.1295 79.7224ZM68.1295 76.8419C70.2791 76.8419 71.9271 76.1397 73.0736 74.7353C74.22 73.3023 74.7932 71.2244 74.7932 68.5016C74.7932 65.8648 74.2057 63.8298 73.0306 62.3968C71.8555 60.935 70.2218 60.2042 68.1295 60.2042C66.0086 60.2042 64.3606 60.935 63.1855 62.3968C62.0104 63.8298 61.4228 65.8648 61.4228 68.5016C61.4228 71.2244 61.9961 73.3023 63.1425 74.7353C64.3176 76.1397 65.9799 76.8419 68.1295 76.8419Z" fill="white"/>
<path d="M52.5015 57.7967V79.2495C52.5015 82.4595 51.6703 84.8814 50.0079 86.515C48.3743 88.1774 45.9524 89.0086 42.7424 89.0086C39.4463 89.0086 36.6089 88.2634 34.23 86.773L34.8319 83.9355C36.2076 84.7094 37.4974 85.2683 38.7012 85.6122C39.9336 85.9562 41.2806 86.1281 42.7424 86.1281C44.8346 86.1281 46.411 85.5692 47.4714 84.4514C48.5319 83.3623 49.0621 81.7286 49.0621 79.5504V74.4344C48.4029 75.8101 47.4284 76.8849 46.1387 77.6588C44.8776 78.404 43.3729 78.7766 41.6246 78.7766C39.733 78.7766 38.042 78.3323 36.5516 77.4438C35.0899 76.5553 33.9577 75.2942 33.1552 73.6606C32.3527 72.0269 31.9515 70.1496 31.9515 68.0287C31.9515 65.9077 32.3527 64.0304 33.1552 62.3968C33.9577 60.7631 35.0899 59.502 36.5516 58.6135C38.042 57.725 39.733 57.2808 41.6246 57.2808C43.3442 57.2808 44.8346 57.6534 46.0957 58.3985C47.3855 59.1437 48.3599 60.1899 49.0191 61.5369V57.7967H52.5015ZM42.3124 75.8531C44.4047 75.8531 46.0384 75.1653 47.2135 73.7895C48.4173 72.3851 49.0191 70.4649 49.0191 68.0287C49.0191 65.5925 48.4173 63.6865 47.2135 62.3108C46.0384 60.9064 44.4047 60.2042 42.3124 60.2042C40.1915 60.2042 38.5149 60.9064 37.2824 62.3108C36.0787 63.6865 35.4768 65.5925 35.4768 68.0287C35.4768 70.4649 36.0787 72.3851 37.2824 73.7895C38.5149 75.1653 40.1915 75.8531 42.3124 75.8531Z" fill="white"/>
<path d="M22.9971 57.7966H26.4794V79.4214H22.9971V57.7966ZM26.9094 48.6394V52.5946H22.6532V48.6394H26.9094Z" fill="white"/>
<path d="M0 48.8114H3.52531V76.412H18.8733V79.4214H0V48.8114Z" fill="white"/>
<mask id="path-5-inside-1_173_189" fill="white">
<path fill-rule="evenodd" clip-rule="evenodd" d="M127 66.2567C127 95.4665 103.321 119.146 74.111 119.146C54.6215 119.146 37.5942 108.604 28.4199 92.9116H24.9755C34.4421 110.325 52.8962 122.146 74.111 122.146C104.978 122.146 130 97.1234 130 66.2567C130 35.39 104.978 10.3676 74.111 10.3676C52.5487 10.3676 33.8384 22.5782 24.5176 40.4619H27.9278C36.9765 24.2957 54.2675 13.3676 74.111 13.3676C103.321 13.3676 127 37.0469 127 66.2567Z"/>
</mask>
<path fill-rule="evenodd" clip-rule="evenodd" d="M127 66.2567C127 95.4665 103.321 119.146 74.111 119.146C54.6215 119.146 37.5942 108.604 28.4199 92.9116H24.9755C34.4421 110.325 52.8962 122.146 74.111 122.146C104.978 122.146 130 97.1234 130 66.2567C130 35.39 104.978 10.3676 74.111 10.3676C52.5487 10.3676 33.8384 22.5782 24.5176 40.4619H27.9278C36.9765 24.2957 54.2675 13.3676 74.111 13.3676C103.321 13.3676 127 37.0469 127 66.2567Z" fill="white"/>
<path d="M28.4199 92.9116L29.2831 92.4069L28.9936 91.9116H28.4199V92.9116ZM24.9755 92.9116V91.9116H23.2936L24.0969 93.3892L24.9755 92.9116ZM24.5176 40.4619L23.6308 39.9997L22.8688 41.4619H24.5176V40.4619ZM27.9278 40.4619V41.4619H28.5141L28.8004 40.9503L27.9278 40.4619ZM74.111 120.146C103.873 120.146 128 96.0188 128 66.2567H126C126 94.9142 102.769 118.146 74.111 118.146V120.146ZM27.5566 93.4163C36.9028 109.403 54.2518 120.146 74.111 120.146V118.146C54.9912 118.146 38.2855 107.805 29.2831 92.4069L27.5566 93.4163ZM28.4199 91.9116H24.9755V93.9116H28.4199V91.9116ZM24.0969 93.3892C33.7315 111.112 52.5152 123.146 74.111 123.146V121.146C53.2771 121.146 35.1527 109.539 25.8541 92.434L24.0969 93.3892ZM74.111 123.146C105.53 123.146 131 97.6757 131 66.2567H129C129 96.5711 104.425 121.146 74.111 121.146V123.146ZM131 66.2567C131 34.8377 105.53 9.36763 74.111 9.36763V11.3676C104.425 11.3676 129 35.9423 129 66.2567H131ZM74.111 9.36763C52.1615 9.36763 33.1171 21.7986 23.6308 39.9997L25.4044 40.924C34.5597 23.3579 52.9359 11.3676 74.111 11.3676V9.36763ZM24.5176 41.4619H27.9278V39.4619H24.5176V41.4619ZM74.111 12.3676C53.891 12.3676 36.2735 23.5042 27.0552 39.9734L28.8004 40.9503C37.6795 25.0872 54.644 14.3676 74.111 14.3676V12.3676ZM128 66.2567C128 36.4946 103.873 12.3676 74.111 12.3676V14.3676C102.769 14.3676 126 37.5992 126 66.2567H128Z" fill="white" mask="url(#path-5-inside-1_173_189)"/>
<circle cx="94.2548" cy="14.6408" r="14.6408" fill="white"/>
</svg>
